<svg id="visual" viewBox="0 0 900 600" width="900" height="600" xmlns="http://www.w3.org/2000/svg" xmlns:xlink="http://www.w3.org/1999/xlink" version="1.1"><rect x="0" y="0" width="900" height="600" fill="#1c002f"></rect><path d="M361 0L483 0L483 120L370 120L370 240L442 240L442 360L370 360L370 480L495 480L495 600L0 600L0 480L0 480L0 360L0 360L0 240L0 240L0 120L0 120L0 0L0 0Z" fill="#9900ff"></path><path d="M318 0L407 0L407 120L291 120L291 240L319 240L319 360L410 360L410 480L255 480L255 600L0 600L0 480L0 480L0 360L0 360L0 240L0 240L0 120L0 120L0 0L0 0Z" fill="#8800e2"></path><path d="M246 0L219 0L219 120L185 120L185 240L205 240L205 360L327 360L327 480L207 480L207 600L0 600L0 480L0 480L0 360L0 360L0 240L0 240L0 120L0 120L0 0L0 0Z" fill="#7700c6"></path><path d="M174 0L122 0L122 120L174 120L174 240L130 240L130 360L170 360L170 480L249 480L249 600L0 600L0 480L0 480L0 360L0 360L0 240L0 240L0 120L0 120L0 0L0 0Z" fill="#6600ab"></path><path d="M61 0L162 0L162 120L131 120L131 240L28 240L28 360L82 360L82 480L127 480L127 600L0 600L0 480L0 480L0 360L0 360L0 240L0 240L0 120L0 120L0 0L0 0Z" fill="#560090"></path></svg>