<svg id="visual" viewBox="0 0 900 600" width="900" height="600" xmlns="http://www.w3.org/2000/svg" xmlns:xlink="http://www.w3.org/1999/xlink" version="1.1"><rect x="0" y="0" width="900" height="600" fill="#715DF2"></rect><path d="M535 0L431 0L431 86L436 86L436 171L458 171L458 257L651 257L651 343L427 343L427 429L565 429L565 514L561 514L561 600L0 600L0 514L0 514L0 429L0 429L0 343L0 343L0 257L0 257L0 171L0 171L0 86L0 86L0 0L0 0Z" fill="#1fab8d"></path><path d="M261 0L342 0L342 86L368 86L368 171L466 171L466 257L337 257L337 343L289 343L289 429L447 429L447 514L378 514L378 600L0 600L0 514L0 514L0 429L0 429L0 343L0 343L0 257L0 257L0 171L0 171L0 86L0 86L0 0L0 0Z" fill="#1d6c5c"></path><path d="M259 0L278 0L278 86L250 86L250 171L209 171L209 257L163 257L163 343L162 343L162 429L156 429L156 514L138 514L138 600L0 600L0 514L0 514L0 429L0 429L0 343L0 343L0 257L0 257L0 171L0 171L0 86L0 86L0 0L0 0Z" fill="#16332d"></path></svg>